<?xml version="1.0" encoding="UTF-8"?>
<svg id="Layer_1" data-name="Layer 1" xmlns="http://www.w3.org/2000/svg" version="1.1" viewBox="0 0 100 60">
  <defs>
    <style>
      .cls-1 {
        fill: #b72025;
        stroke-width: 0px;
      }
    </style>
  </defs>
  <path class="cls-1" d="M39.47,56.69c0,.24-.09.36-.28.36h-10.16c-.2,0-.3-.12-.3-.36v-1.61c0-.26.07-.39.21-.39h1.91c.35,0,.53-.29.53-.87v-18.25c0-6.92-.06-11.97-.17-15.16-.03-.67-.1-1.01-.21-1.01-.09,0-.19.22-.32.65-.73,2.47-3.46,12.3-8.17,29.49-1.02,3.72-1.71,6.36-2.08,7.94-.1.41-.32.61-.66.61s-.59-.17-.7-.54c-3.54-11.4-5.65-18.4-6.34-21.02-1.16-3.9-2.68-9.21-4.56-15.91-.1-.38-.2-.58-.32-.58-.14,0-.23.24-.25.72-.2,5.15-.3,11.79-.3,19.94v7.65c0,4.22.35,6.33,1.04,6.33h2.14c.14,0,.21.11.21.33v1.68c0,.24-.04.36-.13.36H2.5c-.17,0-.25-.09-.25-.29v-1.54c0-.36.07-.54.21-.54h2.16c.38,0,.57-.54.57-1.62,0-1.99.11-8.68.34-20.09.1-2.87.22-7.84.36-14.9.03-3.55-.72-5.88-2.23-7.01-.37-.28-.99-.48-1.87-.57-.11-.02-.17-.13-.17-.32v-1.54c0-.19.06-.29.17-.29h7.3c.24,0,.42.17.53.54.78,2.42,2.06,6.75,3.86,13,.38,1.32,1.62,5.4,3.71,12.25,2.19,7.18,3.41,11.11,3.66,11.78.25.67.44.78.58.32,1.57-5.72,3.24-11.83,5.03-18.32,1.72-6.2,3.49-12.5,5.3-18.89.18-.45.42-.68.7-.68h5.81c.18,0,.27.09.27.29v1.72c0,.24-.06.36-.19.36h-1.59c-.47,0-.74.8-.83,2.37-.09,1.59-.13,7.31-.13,17.21,0,7.61.04,13.07.13,16.38.14,5.34.59,8.02,1.34,8.02h1.95c.16,0,.23.13.23.39v1.61Z"/>
  <path class="cls-1" d="M61.53,56.76c0,.19-.06.29-.17.29h-10.86c-.2,0-.3-.12-.3-.36v-1.54c0-.31.09-.47.25-.47h2.44c.2,0,.3-.34.3-1.01,0-.24,0-6.26-.02-18.05-.01-11.79-.02-17.84-.02-18.16,0-4.5-.26-6.76-.79-6.76h-2.25c-.21,0-.32-.12-.32-.36v-1.72c0-.19.07-.29.21-.29h10.9c.13,0,.19.09.19.29v1.8c0,.19-.08.28-.23.28h-2.55c-.27,0-.4.17-.4.51,0,.14,0,5.54-.02,16.19-.01,10.66-.02,16.35-.02,17.06,0,3.38.01,5.36.04,5.93.1,2.85.39,4.28.87,4.28h2.52c.14,0,.21.11.21.33v1.75Z"/>
  <path class="cls-1" d="M99.59,56.69c0,.24-.04.36-.13.36h-10.39c-.08,0-.12-.14-.12-.43v-1.4c0-.36.09-.54.28-.54h2.54c.21,0,.31-.22.28-.65-.02-.07-.03-.17-.04-.29-.09-.48-.55-2.76-1.4-6.83-.89-4.19-1.39-6.45-1.48-6.79-.1-.5-.26-.75-.47-.75h-10.12c-.17.07-.29.23-.36.47-.71,3.42-1.29,6.45-1.74,9.09-.34,1.72-.55,3.26-.64,4.59.03.77.16,1.16.38,1.16h3.18c.17,0,.26.18.26.54v1.47c0,.24-.07.36-.21.36h-9c-.15,0-.23-.12-.23-.36v-1.61c0-.26.06-.39.19-.39h1.59c.27,0,.62-.71,1.06-2.12,1.66-6.59,3.36-13.35,5.11-20.3,3.24-12.53,5.08-19.56,5.52-21.12.38-1.32,1.47-5.72,1.7-6.76.18-.79.35-1.21.49-1.26.71-.19,1.55-.47,2.52-.83.17-.09.27-.14.3-.14.11,0,.22.09.32.28.1.19.15.42.15.68-.07.17-.14.32-.2.45-.06.13-.21.45-.43.95-.27.6-1.19,4.35-1.19,4.78s.11,1.33.32,2.73c.23,1.58.93,4.91,2.12,9.99.2.84,1.1,5.03,2.69,12.57,1.47,6.94,2.74,12.3,3.82,16.05.78,2.69,1.33,4.03,1.65,4.03h1.53c.11,0,.17.18.17.54v1.47ZM88.2,36.29c-.17-.87-.83-4-1.99-9.41-.51-2.73-1.05-5.59-1.61-8.59-.14-.84-.31-1.25-.51-1.25s-.39.42-.57,1.25c-.54,2.2-1.13,4.66-1.78,7.36-.82,3.26-1.69,6.73-2.61,10.42-.06.31-.09.5-.09.58.01.12.07.17.17.17h8.91c.13,0,.16-.17.09-.54Z"/>
</svg>